/* XPM */
static char * blackPawn_xpm[] = {
"100 100 2 1",
" 	c #FF00FF",
".	c #000000",
"                                                                                                    ",
"                                                                                                    ",
"                                                                                                    ",
"                                                                                                    ",
"                                                                                                    ",
"                                                                                                    ",
"                                                                                                    ",
"                                                                                                    ",
"                                                                                                    ",
"                                                                                                    ",
"                                                                                                    ",
"                                             ..........                                             ",
"                                            ............                                            ",
"                                           ..............                                           ",
"                                          ................                                          ",
"                                         ..................                                         ",
"                                         ..................                                         ",
"                                         ..................                                         ",
"                                        ....................                                        ",
"                                        ....................                                        ",
"                                        ....................                                        ",
"                                         ..................                                         ",
"                                         ..................                                         ",
"                                         ..................                                         ",
"                                          ................                                          ",
"                                           ..............                                           ",
"                                            ............                                            ",
"                                            ............                                            ",
"                                        ....................                                        ",
"                                       ......................                                       ",
"                                     ..........................                                     ",
"                                    ............................                                    ",
"                                   ..............................                                   ",
"                                   ..............................                                   ",
"                                  ................................                                  ",
"                                 ..................................                                 ",
"                                 ..................................                                 ",
"                                 ..................................                                 ",
"                                ....................................                                ",
"                                ....................................                                ",
"                                ....................................                                ",
"                                ....................................                                ",
"                                ....................................                                ",
"                                ....................................                                ",
"                                 ..................................                                 ",
"                                 ..................................                                 ",
"                                 ..................................                                 ",
"                                  ................................                                  ",
"                                  ................................                                  ",
"                                   ..............................                                   ",
"                                    ............................                                    ",
"                                     ..........................                                     ",
"                                      ........................                                      ",
"                                        ....................                                        ",
"                                       ......................                                       ",
"                                     ..........................                                     ",
"                                   ..............................                                   ",
"                                 ..................................                                 ",
"                                ....................................                                ",
"                               ......................................                               ",
"                              ........................................                              ",
"                            ............................................                            ",
"                            ............................................                            ",
"                           ..............................................                           ",
"                          ................................................                          ",
"                         ..................................................                         ",
"                         ..................................................                         ",
"                        ....................................................                        ",
"                       ......................................................                       ",
"                       ......................................................                       ",
"                      ........................................................                      ",
"                      ........................................................                      ",
"                      ........................................................                      ",
"                     ..........................................................                     ",
"                     ..........................................................                     ",
"                     ..........................................................                     ",
"                    ............................................................                    ",
"                    ............................................................                    ",
"                    ............................................................                    ",
"                    ............................................................                    ",
"                    ............................................................                    ",
"                    ............................................................                    ",
"                    ............................................................                    ",
"                    ............................................................                    ",
"                    ............................................................                    ",
"                    ............................................................                    ",
"                    ............................................................                    ",
"                    ............................................................                    ",
"                    ............................................................                    ",
"                                                                                                    ",
"                                                                                                    ",
"                                                                                                    ",
"                                                                                                    ",
"                                                                                                    ",
"                                                                                                    ",
"                                                                                                    ",
"                                                                                                    ",
"                                                                                                    ",
"                                                                                                    ",
"                                                                                                    "};
