/* XPM */
static char * blackQueen_xpm[] = {
"100 100 2 1",
"  c #FF00FF",
". c #000000",
"                                                                                                    ",
"                                                                                                    ",
"                                                                                                    ",
"                                                                                                    ",
"                                                                                                    ",
"                                                                                                    ",
"                                                                                                    ",
"                                                                                                    ",
"                                                                                                    ",
"                                              .......                                               ",
"                                            ...........                                             ",
"                                            ...........                                             ",
"                           .....           .............            ...                             ",
"                         .........         .............          .......                           ",
"                        ...........       ...............        .........                          ",
"                       ............       ...............       ...........                         ",
"                       .............      ...............      .............                        ",
"                      ..............       .............       .............                        ",
"                      ..............       .............       ..............                       ",
"                      ...............      .............       ..............                       ",
"                      ..............        ...........        ..............                       ",
"         ......        .............         .........         ..............       ......          ",
"       .........       .............           .....           .............       .........        ",
"      ...........      ............             ...            .............      ..........        ",
"      ............      ..........              ...             ...........      ............       ",
"     ..............      ........               ...              .........      ..............      ",
"     ..............         ....                ...               .......       ..............      ",
"     ..............          ...                ...                ...          ..............      ",
"     ..............          ...               .....              ....          ..............      ",
"     ..............          ....              .....              ....          ..............      ",
"     ..............          ....              .....              ....          ..............      ",
"      ............           ....              .....             .....           ............       ",
"      ............           .....             .....             .....           ............       ",
"       ..........            .....            ......             .....            ..........        ",
"         .......             ......           .......           ......             .......          ",
"            ....             ......           .......           ......             ....             ",
"            ....            .......           .......           .......           ....              ",
"             ....           ........          .......          ........           ....              ",
"             ....           ........          .......          ........           ....              ",
"             .....          ........         .........         ........          .....              ",
"             .....          .........        .........        .........          .....              ",
"             ......         .........        .........        .........         ......              ",
"             ......         .........        .........        .........         ......              ",
"             .......        ..........       .........       ..........        .......              ",
"             .......        ..........      ..........       ..........        .......              ",
"              .......       ..........      ...........     ...........       .......               ",
"              .......       ...........     ...........     ...........       .......               ",
"              ........      ...........     ...........     ...........      ........               ",
"              ........      ............    ...........    ............      ........               ",
"              .........     ............    ...........    ............     .........               ",
"              .........     ............   .............   ............     .........               ",
"              ..........    .............  .............  .............    ..........               ",
"              ..........    .............  .............  .............    .........                ",
"               ..........   .............  ............. ...............  ..........                ",
"               ..........  ............... ............. ...............  ..........                ",
"               ........... ............................................. ...........                ",
"               .....................................................................                ",
"               .....................................................................                ",
"               .....................................................................                ",
"               .....................................................................                ",
"               ....................................................................                 ",
"                ...................................................................                 ",
"                ..................................................................                  ",
"                 .................................................................                  ",
"                  .......................                 .......................                   ",
"                   ................                            .................                    ",
"                    ...........                                     ...........                     ",
"                    ........            ...................            .......                      ",
"                     ....         ...............................         ....                      ",
"                      ..      .......................................      ..                       ",
"                       .   .............................................   .                        ",
"                       .....................................................                        ",
"                        .................                  ................                         ",
"                        ............                           ............                         ",
"                         .........                               .........                          ",
"                         ......         ..................          ......                          ",
"                          ...        .........................        ...                           ",
"                          ..      ...............................      ..                           ",
"                          .    .....................................   ..                           ",
"                          .. ............................................                           ",
"                         ....................         ....................                          ",
"                         ............                         ............                          ",
"                        .........                                 .........                         ",
"                        .....             ...............            ......                         ",
"                        ..          ...........................         ...                         ",
"                       ...      ..................................      ....                        ",
"                       ...   .........................................  ....                        ",
"                        ...................................................                         ",
"                           .............................................                            ",
"                               .....................................                                ",
"                                                                                                    ",
"                                                                                                    ",
"                                                                                                    ",
"                                                                                                    ",
"                                                                                                    ",
"                                                                                                    ",
"                                                                                                    ",
"                                                                                                    ",
"                                                                                                    ",
"                                                                                                    "};
