/* XPM */
static char * j_xpm[] = {
"50 50 47 1",
" 	c None",
".	c #6E6C6B",
"+	c #747271",
"@	c #716F6E",
"#	c #777575",
"$	c #777574",
"%	c #767473",
"&	c #787675",
"*	c #737170",
"=	c #757473",
"-	c #817F7F",
";	c #151514",
">	c #161615",
",	c #171716",
"'	c #191918",
")	c #20201F",
"!	c #181717",
"~	c #1F1F1E",
"{	c #1D1D1C",
"]	c #1A1A19",
"^	c #232322",
"/	c #1B1B1A",
"(	c #232221",
"_	c #181817",
":	c #1B1A1A",
"<	c #615F5F",
"[	c #5C5B5B",
"}	c #595858",
"|	c #5A5959",
"1	c #716F6F",
"2	c #181716",
"3	c #424241",
"4	c #1F1E1D",
"5	c #494848",
"6	c #1C1B1A",
"7	c #484747",
"8	c #1A1919",
"9	c #393838",
"0	c #868584",
"a	c #585756",
"b	c #1D1C1B",
"c	c #515050",
"d	c #6B6A6A",
"e	c #737272",
"f	c #6D6C6C",
"g	c #585757",
"h	c #21201F",
"                                                  ",
"                                                  ",
"                                                  ",
"                                                  ",
"                                                  ",
"                                                  ",
"                                                  ",
"                                                  ",
"                                                  ",
"                                                  ",
"                       .+@#$%$&*+=-               ",
"                       ;>;;>>;>,>')               ",
"                       !~{;;;>],^/~               ",
"                          ;;;;;(                  ",
"                          ;;;;,,                  ",
"                          ;;;;;'                  ",
"                          ;;;;;_                  ",
"                          ;;;;;]                  ",
"                          ;;;;;,                  ",
"                          ;;;;;_                  ",
"                          ;;;;;>                  ",
"                          ;;;;;'                  ",
"                          ;;;;;>                  ",
"                          ;;;;;,                  ",
"                          ;;;;;'                  ",
"                          ;;;;;,                  ",
"                          ;;;;;,                  ",
"                          ,;;;;_                  ",
"                          >;;;;:                  ",
"              <[[}|1      ;;;;2'                  ",
"              ;;;;;3      ;;;;;4                  ",
"              ;;;;;5      ;;;;;6                  ",
"              ;;;;;7      ;;;;;'                  ",
"              ;;;;;5      ;;;;;8                  ",
"              _;;;;90    a>;;;;                   ",
"              b;;;;;cdefgh;;;;/                   ",
"               _;;;;;;;;;;;;;]                    ",
"                 >;;;;;;;;;,'                     ",
"                                                  ",
"                                                  ",
"                                                  ",
"                                                  ",
"                                                  ",
"                                                  ",
"                                                  ",
"                                                  ",
"                                                  ",
"                                                  ",
"                                                  ",
"                                                  "};
