/* XPM */
static char * mouse_xpm[] = {
"17 26 47 1",
" 	g #FF00FF",
".	g #1D1D1D",
"+	g #484848",
"@	g #AFAFAF",
"#	g #555555",
"$	g #DEDEDE",
"%	g #D1D1D1",
"&	g #E2E2E2",
"*	g #FCFCFC",
"=	g #CFCFCF",
"-	g #FFFFFF",
";	g #FBFBFB",
">	g #CCCCCC",
",	g #FDFDFD",
"'	g #CACACA",
")	g #C9C9C9",
"!	g #C7C7C7",
"~	g #F9F9F9",
"{	g #C5C5C5",
"]	g #F8F8F8",
"^	g #C3C3C3",
"/	g #FAFAFA",
"(	g #BFBFBF",
"_	g #F3F3F3",
":	g #F2F2F2",
"<	g #EAEAEA",
"[	g #AAAAAA",
"}	g #EBEBEB",
"|	g #979797",
"1	g #989898",
"2	g #878787",
"3	g #3E3E3E",
"4	g #FEFEFE",
"5	g #E0E0E0",
"6	g #969696",
"7	g #CECECE",
"8	g #C8C8C8",
"9	g #D6D6D6",
"0	g #DFDFDF",
"a	g #D7D7D7",
"b	g #AEAEAE",
"c	g #4A4A4A",
"d	g #B5B5B5",
"e	g #ABABAB",
"f	g #DADADA",
"g	g #E1E1E1",
"h	g #888888",
"                 ",
"                 ",
".                ",
"+@               ",
"#$%              ",
"#&*=             ",
"#&-;>            ",
"#&--,'           ",
"#&---;)          ",
"#&----;!         ",
"#&-----~{        ",
"#&------]^       ",
"#&-------;       ",
"#&--------/      ",
"#&---------/(    ",
"#&-----;_:::<[   ",
"#&-----}[|||123  ",
"#&--45_:6        ",
"#&-4= 7-8        ",
"#&,9   /}        ",
"#0a    a*b       ",
"cd     e*f       ",
".       <;       ",
"        ^gh      ",
"                 ",
"                 "};
