/* XPM */
static char * q_xpm[] = {
"16 16 2 1",
" 	c #FFFFFE",
"x	c #000000",
"     xxxxxx     ",
"     xxxxxx     ",
"     xxxxxx     ",
"  xxx      xxx  ",
"  xxx      xxx  ",
"  xxx      xxx  ",
"  xxx      xxx  ",
"  xxx      xxx  ",
"  xxx      xxx  ",
"  xxx      xxx  ",
"  xxx   xxx     ",
"  xxx   xxx     ",
"  xxx   xxx     ",
"     xxx   xxx  ",
"     xxx   xxx  ",
"     xxx   xxx  "};