/* XPM */
static char * r_xpm[] = {
"16 16 2 1",
" 	c #FFFFFE",
"x	c #000000",
"  xxxxxxxxx     ",
"  xxxxxxxxx     ",
"  xxxxxxxxx     ",
"  xxx      xxx  ",
"  xxx      xxx  ",
"  xxx      xxx  ",
"  xxxxxxxxx     ",
"  xxxxxxxxx     ",
"  xxxxxxxxx     ",
"  xxx   xxx     ",
"  xxx   xxx     ",
"  xxx   xxx     ",
"  xxx   xxx     ",
"  xxx      xxx  ",
"  xxx      xxx  ",
"  xxx      xxx  "};