/* XPM */
static char * s_xpm[] = {
"16 16 2 1",
" 	c #FFFFFE",
"x	c #000000",
"     xxxxxxxxx  ",
"     xxxxxxxxx  ",
"     xxxxxxxxx  ",
"  xxx           ",
"  xxx           ",
"  xxx           ",
"     xxxxxx     ",
"     xxxxxx     ",
"     xxxxxx     ",
"           xxx  ",
"           xxx  ",
"           xxx  ",
"           xxx  ",
"  xxxxxxxxx     ",
"  xxxxxxxxx     ",
"  xxxxxxxxx     "};