/* XPM */
static char * slash_xpm[] = {
"24 82 2 1",
" 	c #FF00FF",
".	c #FFFFFF",
"                        ",
"                        ",
"                        ",
"                        ",
"                        ",
"                        ",
"                        ",
"                        ",
"                        ",
"                        ",
"                        ",
"                        ",
"                        ",
"                        ",
"                  ..... ",
"                 ...... ",
"                 ...... ",
"                 ...... ",
"                ......  ",
"                ......  ",
"                ......  ",
"               ......   ",
"               ......   ",
"               ......   ",
"               .....    ",
"              ......    ",
"              ......    ",
"              .....     ",
"             ......     ",
"             ......     ",
"             ......     ",
"            ......      ",
"            ......      ",
"            ......      ",
"           ......       ",
"           ......       ",
"           ......       ",
"           .....        ",
"          ......        ",
"          ......        ",
"          .....         ",
"         ......         ",
"         ......         ",
"         ......         ",
"        ......          ",
"        ......          ",
"        ......          ",
"        .....           ",
"       ......           ",
"       ......           ",
"       .....            ",
"      ......            ",
"      ......            ",
"      .....             ",
"     ......             ",
"     ......             ",
"     ......             ",
"    ......              ",
"    ......              ",
"    ......              ",
"    .....               ",
"   ......               ",
"   ......               ",
"   .....                ",
"  ......                ",
"  ......                ",
"  ......                ",
" ......                 ",
" ......                 ",
" ......                 ",
"......                  ",
"......                  ",
"                        ",
"                        ",
"                        ",
"                        ",
"                        ",
"                        ",
"                        ",
"                        ",
"                        ",
"                        "};
