/* XPM */
static char * slash_white_xpm[] = {
"15 52 2 1",
" 	c None",
".	c #FFFFFF",
"               ",
"               ",
"               ",
"               ",
"               ",
"               ",
"               ",
"               ",
"               ",
"           ....",
"           ... ",
"          .... ",
"          .... ",
"          ...  ",
"         ....  ",
"         ....  ",
"         ....  ",
"         ...   ",
"        ....   ",
"        ....   ",
"        ...    ",
"       ....    ",
"       ....    ",
"       ...     ",
"      ....     ",
"      ....     ",
"      ...      ",
"     ....      ",
"     ....      ",
"     ...       ",
"    ....       ",
"    ....       ",
"    ....       ",
"    ...        ",
"   ....        ",
"   ....        ",
"   ...         ",
"  ....         ",
"  ....         ",
"  ...          ",
" ....          ",
" ....          ",
" ...           ",
"....           ",
"....           ",
"               ",
"               ",
"               ",
"               ",
"               ",
"               ",
"               "};
