/* XPM */
static char * whiteRook_xpm[] = {
"100 100 75 1",
" 	c None",
".	c #000000",
"+	c #CCCCCC",
"@	c #DEDEDE",
"#	c #020202",
"$	c #090909",
"%	c #DDDDDD",
"&	c #D8D8D8",
"*	c #EAEAEA",
"=	c #FFFFFF",
"-	c #0A0A0A",
";	c #FEFEFE",
">	c #F8F8F8",
",	c #0D0D0D",
"'	c #010101",
")	c #060606",
"!	c #252525",
"~	c #6C6C6C",
"{	c #8D8D8D",
"]	c #C2C2C2",
"^	c #343434",
"/	c #FDFDFD",
"(	c #F7F7F7",
"_	c #F3F3F3",
":	c #F2F2F2",
"<	c #F1F1F1",
"[	c #F4F4F4",
"}	c #F6F6F6",
"|	c #F9F9F9",
"1	c #FAFAFA",
"2	c #FBFBFB",
"3	c #F5F5F5",
"4	c #282828",
"5	c #2A2A2A",
"6	c #2C2C2C",
"7	c #2D2D2D",
"8	c #2F2F2F",
"9	c #313131",
"0	c #333333",
"a	c #363636",
"b	c #383838",
"c	c #3A3A3A",
"d	c #3C3C3C",
"e	c #3D3D3D",
"f	c #3E3E3E",
"g	c #404040",
"h	c #414141",
"i	c #424242",
"j	c #444444",
"k	c #454545",
"l	c #292929",
"m	c #030303",
"n	c #242424",
"o	c #393939",
"p	c #E7E7E7",
"q	c #9E9E9E",
"r	c #ADADAD",
"s	c #232323",
"t	c #323232",
"u	c #353535",
"v	c #2B2B2B",
"w	c #262626",
"x	c #EDEDED",
"y	c #E2E2E2",
"z	c #E8E8E8",
"A	c #D5D5D5",
"B	c #D7D7D7",
"C	c #C5C5C5",
"D	c #B8B8B8",
"E	c #0E0E0E",
"F	c #434343",
"G	c #181818",
"H	c #5D5D5D",
"I	c #494949",
"J	c #E3E3E3",
"                                                                                                    ",
"                                                                                                    ",
"                                                                                                    ",
"                                                                                                    ",
"                                                                                                    ",
"                                                                                                    ",
"                                                                                                    ",
"                                                                                                    ",
"                                                                                                    ",
"                                                                                                    ",
"                                                                                                    ",
"                    ..............        ................        ..............                    ",
"                    ..............       ..................       ..............                    ",
"                    ...............      ..................       ..............                    ",
"                    ...+@@@@@@@....      ...#@@@@@@@@@@$...       ...%@@@@@@&...                    ",
"                    ...*=======....      ...#==========-...       ...;======>...                    ",
"                    ...*=======....      ...#==========-...      ....=======>...                    ",
"                    ...*=======.............#==========,.............=======>...                    ",
"                    ...*======='............)==========!.............=======>...                    ",
"                    ...*=======~............{==========]............^=======>...                    ",
"                    ...*========/(_:<_[}(|12============;|[:<:[3}>2=========>...                    ",
"                    ...*====================================================>...                    ",
"                    ...*====================================================>...                    ",
"                    ...*====================================================>...                    ",
"                    ............................................................                    ",
"                    ............................................................                    ",
"                    ............................................................                    ",
"                     .....'4567890^abcdefghiijjjkkkkjjjiihgfedcba^098765lm.....                     ",
"                      .....n;===========================================o.....                      ",
"                       .....#p========================================<).....                       ",
"                         .....q======================================r.....                         ",
"                          .....s99999ttttt00000^^^^^^uuuuuaaaaabbbbbv.....                          ",
"                           ..............................................                           ",
"                             ..........................................                             ",
"                             ..........................................                             ",
"                             ....=================================='...                             ",
"                             ....=================================='...                             ",
"                             ....=================================='...                             ",
"                             ....=================================='...                             ",
"                             ....=================================='...                             ",
"                             ....=================================='...                             ",
"                             ....=================================='...                             ",
"                             ....=================================='...                             ",
"                             ....=================================='...                             ",
"                             ....=================================='...                             ",
"                             ....=================================='...                             ",
"                             ....=================================='...                             ",
"                             ....=================================='...                             ",
"                             ....=================================='...                             ",
"                             ....=================================='...                             ",
"                             ....=================================='...                             ",
"                             ....=================================='...                             ",
"                             ....=================================='...                             ",
"                             ....=================================='...                             ",
"                             ....=================================='...                             ",
"                             ....=================================='...                             ",
"                             ....=================================='...                             ",
"                             ....=================================='...                             ",
"                             ....=================================='...                             ",
"                             ....=================================='...                             ",
"                             ....=================================='...                             ",
"                             ....##################################....                             ",
"                             ..........................................                             ",
"                            ............................................                            ",
"                           ....'wwwwwwwwwwwwwwwwwwwwwwwwwwwwwwwwwwwwm....                           ",
"                          .....3====================================|'....                          ",
"                         .....x======================================:.....                         ",
"                        .....y========================================z.....                        ",
"                       .....A==========================================B.....                       ",
"                       ....C============================================D....                       ",
"                      ........................................................                      ",
"                     ..........................................................                     ",
"                     ..........................................................                     ",
"                     ...EFFFFFFFFFFFFFFFFFFFFFFFFFFFFFFFFFFFFFFFFFFFFFFFFFFG...                     ",
"                     ...o==================================================H...                     ",
"                     ...o==================================================H...                     ",
"                     ...o==================================================H...                     ",
"                     ...o==================================================H...                     ",
"                 .......EFFFFFFFFFFFFFFFFFFFFFFFFFFFFFFFFFFFFFFFFFFFFFFFFFFG.......                 ",
"                ....................................................................                ",
"                ....................................................................                ",
"                ....................................................................                ",
"                ...l============================================================I...                ",
"                ...l============================================================I...                ",
"                ...l============================================================I...                ",
"                ...wJJJJJJJJJJJJJJJJJJJJJJJJJJJJJJJJJJJJJJJJJJJJJJJJJJJJJJJJJJJJi...                ",
"                ....................................................................                ",
"                ....................................................................                ",
"                 ...................................................................                ",
"                                                                                                    ",
"                                                                                                    ",
"                                                                                                    ",
"                                                                                                    ",
"                                                                                                    ",
"                                                                                                    ",
"                                                                                                    ",
"                                                                                                    ",
"                                                                                                    ",
"                                                                                                    ",
"                                                                                                    "};
