/* XPM */
static char * x_xpm[] = {
"16 16 2 1",
" 	c #FFFFFE",
"x	c #000000",
"  xxx      xxx  ",
"  xxx      xxx  ",
"  xxx      xxx  ",
"  xxx      xxx  ",
"  xxx      xxx  ",
"  xxx      xxx  ",
"     xxxxxx     ",
"     xxxxxx     ",
"     xxxxxx     ",
"  xxx      xxx  ",
"  xxx      xxx  ",
"  xxx      xxx  ",
"  xxx      xxx  ",
"  xxx      xxx  ",
"  xxx      xxx  ",
"  xxx      xxx  "};