/* XPM */
static char * z_xpm[] = {
"50 50 2 1",
" 	c None",
".	c #000000",
"                                                  ",
"                                                  ",
"                                                  ",
"                                                  ",
"                                                  ",
"                                                  ",
"                                                  ",
"                                                  ",
"                                                  ",
"                  .............                   ",
"                  .............                   ",
"                  ....  .......                   ",
"                  ...   ......                    ",
"                  ...  .......                    ",
"                  ...  .......                    ",
"                  ..   .......                    ",
"                       .......                    ",
"                      .......                     ",
"                      .......                     ",
"                      .......                     ",
"                      .......                     ",
"                     .......                      ",
"                     .......                      ",
"                     .......                      ",
"                     .......                      ",
"                    ........                      ",
"                    .......                       ",
"                    .......                       ",
"                    .......                       ",
"                   ........                       ",
"                   .......                        ",
"                   .......                        ",
"                   .......                        ",
"                   .......  ...                   ",
"                  .......   ...                   ",
"                  .......   ...                   ",
"                  .......   ...                   ",
"                  .......  ....                   ",
"                 .............                    ",
"                 .............                    ",
"                                                  ",
"                                                  ",
"                                                  ",
"                                                  ",
"                                                  ",
"                                                  ",
"                                                  ",
"                                                  ",
"                                                  ",
"                                                  "};
